P2
# This is an example called real.pgm
6 4
255
25 0 0 0 255 70
0 0 0 0 255 50
0 0 0 0 255 200
0 0 0 0 100 10
